<?xml version="1.0" encoding="utf-8"?>
<!-- Generator: Adobe Illustrator 21.0.0, SVG Export Plug-In . SVG Version: 6.00 Build 0)  -->
<svg version="1.1" id="Layer_1" xmlns="http://www.w3.org/2000/svg" xmlns:xlink="http://www.w3.org/1999/xlink" x="0px" y="0px"
	 viewBox="0 0 612 792" style="enable-background:new 0 0 612 792;" xml:space="preserve">
<style type="text/css">
	.st0{fill:#E54B21;}
	.st1{opacity:0.95;}
</style>
<g>
	<path class="st0" d="M156,370.3v2.5l-17.4,19.2l17.4,19.2v2.5h-10.6L129.9,397h-7.7v16.8h-9.8v-57.7h9.8v31h7.7l15.5-16.8H156z"/>
	<path class="st0" d="M204.9,380.7v33.1H171c-5.7,0-10.3-4.6-10.3-10.3v-16.3H195v-6.4c0-0.3-0.2-0.5-0.5-0.5h-33.8v-9.8h33.8
		C200.2,370.3,204.9,375,204.9,380.7z M195,397h-24.5v6.5c0,0.3,0.2,0.5,0.5,0.5h24V397z"/>
	<path class="st0" d="M257.1,380.7v22.8c0,5.7-4.6,10.3-10.3,10.3h-24v17.2h-9.8v-60.7h33.8C252.4,370.3,257.1,375,257.1,380.7z
		 M247.2,380.7c0-0.3-0.2-0.5-0.5-0.5h-23.5c-0.3,0-0.5,0.2-0.5,0.5v22.8c0,0.3,0.2,0.5,0.5,0.5h23.5c0.3,0,0.5-0.2,0.5-0.5V380.7z"
		/>
	<path class="st0" d="M272.4,356.1v9.9h-9.8v-9.9H272.4z M262.5,370.3h9.8v43.5h-9.8V370.3z"/>
	<path class="st0" d="M289.9,356.1v47.4c0,0.3,0.1,0.5,0.5,0.5h8.8v9.8h-8.8c-5.7,0-10.3-4.6-10.3-10.3v-47.4H289.9z"/>
	<path class="st0" d="M350,380.7v33.1h-33.8c-5.7,0-10.3-4.6-10.3-10.3v-16.3h34.3v-6.4c0-0.3-0.2-0.5-0.5-0.5h-33.8v-9.8h33.8
		C345.3,370.3,350,375,350,380.7z M340.2,397h-24.5v6.5c0,0.3,0.2,0.5,0.5,0.5h24V397z"/>
	<path d="M381.5,388.3c3.9,0,5.8,2.3,5.8,6.3v0.8h-3.7v-1c0-1.8-0.7-2.5-2-2.5s-2,0.7-2,2.5c0,1.8,0.8,3.2,3.4,5.5
		c3.3,2.9,4.4,5,4.4,7.9c0,4-2,6.3-5.9,6.3s-5.9-2.3-5.9-6.3v-1.5h3.7v1.8c0,1.8,0.8,2.4,2.1,2.4s2.1-0.6,2.1-2.4
		c0-1.8-0.8-3.2-3.4-5.5c-3.3-2.9-4.4-5-4.4-7.9C375.7,390.6,377.7,388.3,381.5,388.3z"/>
	<path d="M389.3,394.7c0-4,2.1-6.3,6-6.3s6,2.3,6,6.3v13.1c0,4-2.1,6.3-6,6.3s-6-2.3-6-6.3V394.7z M393.3,408c0,1.8,0.8,2.5,2.1,2.5
		s2.1-0.7,2.1-2.5v-13.6c0-1.8-0.8-2.5-2.1-2.5s-2.1,0.7-2.1,2.5V408z"/>
	<path d="M403.9,388.6h4v21.6h6.5v3.6h-10.5V388.6z"/>
	<path d="M419.9,388.6V408c0,1.8,0.8,2.4,2.1,2.4s2.1-0.6,2.1-2.4v-19.4h3.7v19.2c0,4-2,6.3-5.9,6.3s-5.9-2.3-5.9-6.3v-19.2H419.9z"
		/>
	<path d="M429.3,388.6h12.2v3.6h-4.1v21.6h-4v-21.6h-4.1V388.6z"/>
	<path d="M443.2,388.6h4v25.2h-4V388.6z"/>
	<path d="M449.8,394.7c0-4,2.1-6.3,6-6.3s6,2.3,6,6.3v13.1c0,4-2.1,6.3-6,6.3s-6-2.3-6-6.3V394.7z M453.7,408c0,1.8,0.8,2.5,2.1,2.5
		s2.1-0.7,2.1-2.5v-13.6c0-1.8-0.8-2.5-2.1-2.5s-2.1,0.7-2.1,2.5V408z"/>
	<path d="M467.9,395.6L467.9,395.6l-0.1,18.2h-3.6v-25.2h5l4,15.1h0.1v-15.1h3.5v25.2h-4.1L467.9,395.6z"/>
	<path d="M485,388.3c3.9,0,5.8,2.3,5.8,6.3v0.8h-3.7v-1c0-1.8-0.7-2.5-2-2.5s-2,0.7-2,2.5c0,1.8,0.8,3.2,3.4,5.5
		c3.3,2.9,4.4,5,4.4,7.9c0,4-2,6.3-5.9,6.3s-5.9-2.3-5.9-6.3v-1.5h3.7v1.8c0,1.8,0.8,2.4,2.1,2.4s2.1-0.6,2.1-2.4
		c0-1.8-0.8-3.2-3.4-5.5c-3.3-2.9-4.4-5-4.4-7.9C479.2,390.6,481.2,388.3,485,388.3z"/>
</g>
<g>
	<rect x="325" y="393" transform="matrix(-1.836970e-16 1 -1 -1.836970e-16 758 29)" class="st1" width="79" height="1"/>
</g>
<g>
</g>
<g>
</g>
<g>
</g>
<g>
</g>
<g>
</g>
<g>
</g>
</svg>
